<svg width="122" height="122" viewBox="0 0 122 122" fill="none" xmlns="http://www.w3.org/2000/svg">
<g clip-path="url(#clip0_121_194)">
<path d="M61 114.375C46.8441 114.375 33.2679 108.752 23.2582 98.7418C13.2484 88.7321 7.625 75.1559 7.625 61C7.625 46.8441 13.2484 33.2679 23.2582 23.2582C33.2679 13.2484 46.8441 7.625 61 7.625C75.1559 7.625 88.7321 13.2484 98.7418 23.2582C108.752 33.2679 114.375 46.8441 114.375 61C114.375 75.1559 108.752 88.7321 98.7418 98.7418C88.7321 108.752 75.1559 114.375 61 114.375ZM61 122C77.1782 122 92.6938 115.573 104.134 104.134C115.573 92.6938 122 77.1782 122 61C122 44.8218 115.573 29.3062 104.134 17.8665C92.6938 6.42677 77.1782 0 61 0C44.8218 0 29.3062 6.42677 17.8665 17.8665C6.42677 29.3062 0 44.8218 0 61C0 77.1782 6.42677 92.6938 17.8665 104.134C29.3062 115.573 44.8218 122 61 122V122Z" fill="#979797"/>
<path d="M83.6462 37.8963C83.5918 37.9489 83.5409 38.0049 83.4936 38.064L57.012 71.8046L41.0529 55.8379C39.9688 54.8277 38.535 54.2778 37.0534 54.3039C35.5719 54.3301 34.1583 54.9302 33.1105 55.978C32.0628 57.0258 31.4626 58.4394 31.4364 59.9209C31.4103 61.4024 31.9602 62.8363 32.9704 63.9204L53.1461 84.1038C53.6897 84.6463 54.3369 85.0738 55.0492 85.3608C55.7616 85.6477 56.5244 85.7883 57.2922 85.7741C58.06 85.7598 58.8171 85.5911 59.5183 85.2779C60.2195 84.9648 60.8505 84.5136 61.3735 83.9513L91.8125 45.9025C92.849 44.8147 93.4157 43.3626 93.3901 41.8602C93.3645 40.3579 92.7486 38.926 91.6757 37.8741C90.6028 36.8222 89.1589 36.2348 87.6564 36.239C86.1538 36.2431 84.7133 36.8384 83.6462 37.8963V37.8963Z" fill="#979797"/>
</g>
<defs>
<clipPath id="clip0_121_194">
<rect width="122" height="122" fill="white"/>
</clipPath>
</defs>
</svg>
