<svg width="57" height="44" viewBox="0 0 57 44" fill="none" xmlns="http://www.w3.org/2000/svg">
<g clip-path="url(#clip0_118_428)">
<path d="M48.2843 3.66969C44.5462 1.93284 40.5916 0.698737 36.525 0C36.0184 0.909407 35.4266 2.13256 35.0185 3.10565C30.6339 2.45095 26.2897 2.45095 21.9857 3.10565C21.5778 2.13278 20.9726 0.909407 20.4614 0C16.3908 0.699059 12.4328 1.93631 8.69293 3.67875C1.25087 14.8466 -0.766621 25.7367 0.242012 36.4727C5.17808 40.1331 9.96163 42.3567 14.6646 43.8118C15.8334 42.2157 16.8666 40.5259 17.7535 38.7598C16.0649 38.1214 14.4371 37.3347 12.8893 36.409C13.2966 36.1092 13.6943 35.7968 14.0819 35.4722C23.4606 39.8284 33.6511 39.8284 42.9181 35.4722C43.3073 35.7946 43.7049 36.107 44.1104 36.409C42.5602 37.3371 40.9293 38.1254 39.2374 38.7644C40.1293 40.5377 41.1607 42.2292 42.3263 43.8163C47.0337 42.3614 51.8217 40.1377 56.7577 36.4727C57.9414 24.0271 54.736 13.2367 48.2843 3.66947V3.66969ZM19.0313 29.8703C16.2158 29.8703 13.9069 27.2601 13.9069 24.0817C13.9069 20.9033 16.1666 18.2887 19.0313 18.2887C21.8962 18.2887 24.2049 20.8987 24.1557 24.0817C24.1602 27.2601 21.8962 29.8703 19.0313 29.8703ZM37.9684 29.8703C35.153 29.8703 32.8442 27.2601 32.8442 24.0817C32.8442 20.9033 35.1037 18.2887 37.9684 18.2887C40.8334 18.2887 43.1421 20.8987 43.0929 24.0817C43.0929 27.2601 40.8334 29.8703 37.9684 29.8703Z" fill="#5865F2"/>
</g>
<defs>
<clipPath id="clip0_118_428">
<rect width="57" height="44" fill="white"/>
</clipPath>
</defs>
</svg>
