<svg width="53" height="53" viewBox="0 0 53 53" fill="none" xmlns="http://www.w3.org/2000/svg">
<path d="M45.1585 45.1592H37.3056V32.8609C37.3056 29.9284 37.2532 26.1531 33.2213 26.1531C29.1312 26.1531 28.5053 29.3485 28.5053 32.6475V45.1584H20.6526V19.8683H28.1912V23.3245H28.2968C29.0513 22.0345 30.1415 20.9732 31.4513 20.2538C32.7612 19.5344 34.2416 19.1837 35.735 19.2391C43.6944 19.2391 45.1618 24.4745 45.1618 31.2854L45.1585 45.1592ZM11.7917 16.4115C9.27479 16.4119 7.23409 14.3718 7.23367 11.8549C7.23326 9.33807 9.27314 7.29736 11.79 7.29694C14.3069 7.29632 16.3476 9.33641 16.348 11.8533C16.3482 13.0619 15.8683 14.2212 15.0138 15.076C14.1594 15.9308 13.0003 16.4112 11.7917 16.4115ZM15.7182 45.1594H7.85704V19.8683H15.718L15.7182 45.1594ZM49.0734 0.00385738H3.91103C1.77654 -0.0201582 0.0260859 1.68971 0 3.8242V49.175C0.0252578 51.3105 1.7755 53.0221 3.91082 52.9997H49.0734C51.2133 53.0262 52.9704 51.3147 53 49.175V3.82068C52.9696 1.68205 51.2123 -0.0276114 49.0734 0.000337853" fill="#0A66C2"/>
</svg>
