<svg width="57" height="46" viewBox="0 0 57 46" fill="none" xmlns="http://www.w3.org/2000/svg">
<path d="M57 5.44537C54.9026 6.36893 52.6488 6.99311 50.2834 7.27391C52.6981 5.83673 54.5521 3.5609 55.4252 0.849264C53.1297 2.20195 50.6182 3.15501 47.9993 3.66725C45.8661 1.41043 42.827 0 39.4634 0C33.005 0 27.7688 5.1995 27.7688 11.6124C27.7688 12.5227 27.8723 13.4089 28.0716 14.2591C18.3527 13.7746 9.73587 9.15153 3.96796 2.1257C2.96155 3.84081 2.38487 5.83584 2.38487 7.96376C2.38487 11.9927 4.44956 15.547 7.58723 17.6296C5.73017 17.5718 3.91396 17.0737 2.29024 16.1769C2.28957 16.2256 2.28957 16.2742 2.28957 16.3231C2.28957 21.9495 6.32054 26.6431 11.6701 27.71C9.94803 28.1751 8.14171 28.2431 6.38912 27.909C7.87713 32.5225 12.196 35.8798 17.3131 35.9738C13.3108 39.0883 8.26834 40.9449 2.78966 40.9449C1.8456 40.9449 0.914895 40.8898 0 40.7826C5.1752 44.0775 11.3221 46 17.9261 46C39.4362 46 51.1985 28.3048 51.1985 12.9592C51.1985 12.4555 51.1873 11.9547 51.1646 11.4568C53.454 9.81327 55.4301 7.77762 57 5.44537Z" fill="#55ACEE"/>
</svg>
