<svg width="144" height="144" viewBox="0 0 144 144" fill="none" xmlns="http://www.w3.org/2000/svg">
<rect width="144" height="144" rx="7" fill="#373737"/>
<path d="M40.75 112.625C38.2636 112.625 35.879 111.637 34.1209 109.879C32.3627 108.121 31.375 105.736 31.375 103.25V40.75C31.375 38.2636 32.3627 35.879 34.1209 34.1209C35.879 32.3627 38.2636 31.375 40.75 31.375H90.75C91.5788 31.375 92.3737 31.7042 92.9597 32.2903C93.5458 32.8763 93.875 33.6712 93.875 34.5C93.875 35.3288 93.5458 36.1237 92.9597 36.7097C92.3737 37.2958 91.5788 37.625 90.75 37.625H40.75C39.9212 37.625 39.1263 37.9542 38.5403 38.5403C37.9542 39.1263 37.625 39.9212 37.625 40.75V103.25C37.625 104.079 37.9542 104.874 38.5403 105.46C39.1263 106.046 39.9212 106.375 40.75 106.375H103.25C104.079 106.375 104.874 106.046 105.46 105.46C106.046 104.874 106.375 104.079 106.375 103.25V72C106.375 71.1712 106.704 70.3763 107.29 69.7903C107.876 69.2042 108.671 68.875 109.5 68.875C110.329 68.875 111.124 69.2042 111.71 69.7903C112.296 70.3763 112.625 71.1712 112.625 72V103.25C112.625 105.736 111.637 108.121 109.879 109.879C108.121 111.637 105.736 112.625 103.25 112.625H40.75Z" fill="white"/>
<path d="M74.2125 86.7125L117.963 42.9625C118.253 42.672 118.484 42.327 118.641 41.9474C118.798 41.5678 118.879 41.1609 118.879 40.75C118.879 40.3391 118.798 39.9322 118.641 39.5526C118.484 39.173 118.253 38.8281 117.963 38.5375C117.672 38.247 117.327 38.0165 116.947 37.8592C116.568 37.702 116.161 37.6211 115.75 37.6211C115.339 37.6211 114.932 37.702 114.553 37.8592C114.173 38.0165 113.828 38.247 113.538 38.5375L72 80.0813L55.4625 63.5375C55.172 63.247 54.8271 63.0165 54.4474 62.8592C54.0678 62.702 53.6609 62.6211 53.25 62.6211C52.8391 62.6211 52.4323 62.702 52.0526 62.8592C51.673 63.0165 51.3281 63.247 51.0375 63.5375C50.747 63.8281 50.5165 64.173 50.3593 64.5526C50.202 64.9322 50.1211 65.3391 50.1211 65.75C50.1211 66.1609 50.202 66.5678 50.3593 66.9474C50.5165 67.327 50.747 67.672 51.0375 67.9625L69.7875 86.7125C70.0778 87.0035 70.4227 87.2344 70.8023 87.392C71.182 87.5495 71.589 87.6306 72 87.6306C72.4111 87.6306 72.8181 87.5495 73.1977 87.392C73.5774 87.2344 73.9223 87.0035 74.2125 86.7125Z" fill="white"/>
</svg>
